<svg xmlns="http://www.w3.org/2000/svg" viewBox="0 0 384.42 100.33"><defs><style>.cls-1{fill:#fff;}.cls-2{fill:#ff154a;}</style></defs><title>credia-logo-white</title><g id="Layer_2" data-name="Layer 2"><g id="Layer_1-2" data-name="Layer 1"><path class="cls-1" d="M163.47,75.74a23.07,23.07,0,0,1-17.28,7.1c-13,0-23.83-7.82-23.83-23.74s10.83-23.74,23.83-23.74A21.3,21.3,0,0,1,162.38,42l-7,7.37a13.62,13.62,0,0,0-9-3.55c-7.46,0-12.92,5.46-12.92,13.28,0,8.55,5.82,13.1,12.73,13.1A13.48,13.48,0,0,0,156,68.46Z"/><path class="cls-1" d="M178.66,36.62l.82,5.19c3.46-5.55,8.1-6.37,12.64-6.37s9.1,1.82,11.55,4.28l-5,9.64a11.09,11.09,0,0,0-8-2.91c-5.82,0-11.19,3.09-11.19,11.37V81.47h-11.1V36.62Z"/><path class="cls-1" d="M217.32,63c.73,5.55,5.55,9.55,13.37,9.55,4.09,0,9.46-1.55,12-4.18l7.1,7c-4.73,4.91-12.46,7.28-19.28,7.28-15.46,0-24.65-9.55-24.65-23.92,0-13.64,9.28-23.47,23.83-23.47,15,0,24.38,9.28,22.65,27.74Zm24.38-9.19c-.73-5.82-5.28-8.73-11.64-8.73-6,0-10.92,2.91-12.55,8.73Z"/><path class="cls-1" d="M307.46,17.88V81.47H297.09l-.73-6.19c-3.46,5.37-9,7.19-14.46,7.19-13.19,0-23.11-8.73-23.11-23.47,0-15.46,9.73-23.47,22.83-23.47,4.73,0,12.1,2.55,14.74,7.19V17.88ZM269.89,59c0,7.82,5.64,13.19,12.74,13.19a12.71,12.71,0,0,0,13-13.19,12.8,12.8,0,0,0-13-13.1C275.53,45.9,269.89,50.9,269.89,59Z"/><path class="cls-1" d="M329.2,24c0,8.64-13.1,8.64-13.1,0S329.2,15.33,329.2,24ZM317.1,36.44v45h11.1v-45Z"/><path class="cls-1" d="M373.77,36.62h10.64V81.47H374l-.55-6.55c-2.55,5.28-9.55,7.82-14.55,7.91-13.28.09-23.1-8.1-23.1-23.83,0-15.46,10.28-23.56,23.38-23.47,6,0,11.73,2.82,14.28,7.28ZM346.85,59c0,8.55,5.91,13.64,13.28,13.64,17.47,0,17.47-27.2,0-27.2C352.76,45.44,346.85,50.45,346.85,59Z"/><path class="cls-1" d="M85.63,85.63a50.16,50.16,0,1,1-.2-71.14c-4.67,4.82-10.48,10.74-17.72,18a24.87,24.87,0,1,0,0,35.22Z"/><path class="cls-2" d="M99.41,50.17A49.91,49.91,0,0,1,90.08,79.3L60.94,50.17,71.69,39.42,90.08,21A49.91,49.91,0,0,1,99.41,50.17Z"/></g></g></svg>